<svg xmlns="http://www.w3.org/2000/svg" version="1.1" xmlns:xlink="http://www.w3.org/1999/xlink" xmlns:svgjs="http://svgjs.dev/svgjs" viewBox="0 0 800 800"><defs><filter id="uuunion-blur" x="-100%" y="-100%" width="400%" height="400%" color-interpolation-filters="sRGB">
        <feGaussianBlur in="SourceGraphic" stdDeviation="9 0" result="blur"></feGaussianBlur>
        <feDropShadow stdDeviation="12.307692307692308" in="blur" dx="10" dy="10" flood-color="hsl(270, 73%, 53%)" flood-opacity="0.25" x="0%" y="0%" width="100%" height="100%"></feDropShadow>
      </filter><filter id="uuunion-blur2" x="-100%" y="-100%" width="400%" height="400%" color-interpolation-filters="sRGB">
        <feGaussianBlur in="SourceGraphic" stdDeviation="9 0" result="blur"></feGaussianBlur>
        <feDropShadow stdDeviation="12.307692307692308" in="blur" dx="-10" dy="-10" flood-color="hsl(270, 73%, 53%)" flood-opacity="0.25" x="0%" y="0%" width="100%" height="100%"></feDropShadow>
      </filter><linearGradient gradientTransform="rotate(0, 0.5, 0.5)" x1="50%" y1="0%" x2="50%" y2="100%" id="uuunion-grad"><stop stop-color="hsl(162, 100%, 58%)" offset="10%"></stop><stop stop-color="hsl(270, 73%, 53%)" offset="90%"></stop></linearGradient><linearGradient gradientTransform="rotate(135, 0.5, 0.5)" x1="50%" y1="0%" x2="50%" y2="100%" id="uuunion-grad2"><stop stop-color="hsl(162, 100%, 58%)" offset="25%"></stop><stop stop-color="hsl(270, 73%, 53%)" offset="100%"></stop></linearGradient><linearGradient gradientTransform="rotate(333, 0.5, 0.5)" x1="50%" y1="0%" x2="50%" y2="100%" id="uuunion-grad3"><stop stop-color="hsl(162, 100%, 58%)" offset="0%"></stop><stop stop-color="hsl(270, 73%, 53%)" offset="75%"></stop></linearGradient></defs><path d="M-78.97 -77.74Q-64.34 -75.74 -49.7 -73.99 -35.07 -72.6 -20.44 -71.66 -5.8 -71.22 8.82 -71.31 23.46 -71.92 38.09 -73.02 52.73 -74.54 67.36 -76.38 81.99 -78.44 96.63 -80.6 111.26 -82.72 125.9 -84.67 140.53 -86.35 155.17 -87.64 169.8 -88.47 184.44 -88.79 199.07 -88.58 213.7 -87.86 228.34 -86.66 242.97 -85.07 257.61 -83.16 272.24 -81.07 286.88 -78.91 301.51 -76.82 316.15 -74.91 330.78 -73.32 345.41 -72.12 360.05 -71.4 374.68 -71.2 389.32 -71.52 403.95 -72.36 418.59 -73.65 433.22 -75.33 447.85 -77.29 462.49 -79.4 477.12 -81.56 491.76 -83.62 506.39 -85.46 521.03 -86.98 535.66 -88.07 550.3 -88.68 564.93 -88.76 579.56 -88.32 594.2 -87.38 608.83 -85.99 623.47 -84.24 638.1 -82.24 652.74 -80.1 667.37 -77.96 682.01 -75.93 696.64 -74.15 711.27 -72.73 725.91 -71.74 740.54 -71.25 755.18 -71.28 769.81 -71.84 784.45 -72.89 799.08 -74.36 813.71 -76.18 828.35 -78.22 842.98 -80.37 857.62 -82.5 855.9 -67.57 857.37 -52.63 861.83 -37.7 868.7 -22.76 877.06 -7.82 885.81 7.1 893.8 22.04 899.95 36.97 903.46 51.91 903.87 66.85 901.12 81.78 895.57 96.72 887.96 111.65 879.29 126.59 870.72 141.52 863.38 156.46 858.23 171.4 855.97 186.33 856.88 201.27 860.86 216.2 867.37 231.14 875.55 246.08 884.32 261.01 892.51 275.95 899.05 290.88 903.07 305.82 904.03 320.75 901.81 335.69 896.71 350.63 889.39 365.56 880.83 380.5 872.16 395.43 864.52 410.37 858.94 425.31 856.14 440.24 856.5 455.18 859.97 470.11 866.09 485.05 874.05 499.99 882.8 514.92 891.18 529.86 898.07 544.79 902.58 559.73 904.09 574.66 902.42 589.6 897.78 604.54 890.78 619.47 882.36 634.41 873.62 649.34 865.73 664.28 859.72 679.22 856.4 694.15 856.2 709.09 859.15 724.02 864.86 738.96 872.57 753.89 881.27 768.83 889.79 783.77 897.02 798.7 902 813.64 904.06 828.57 902.94 843.51 898.78 858.45 892.13 873.38 876.93 878.99 861.73 884.67 846.54 890.06 831.34 894.84 816.14 898.74 800.94 901.5 785.74 902.97 770.54 903.06 755.35 901.76 740.15 899.15 724.95 895.39 709.75 890.7 694.55 885.37 679.36 879.72 664.16 874.08 648.96 868.8 633.76 864.19 618.56 860.53 603.36 858.04 588.17 856.88 572.97 857.1 557.77 858.7 542.57 861.59 527.37 865.58 512.17 870.44 496.98 875.87 481.78 881.55 466.58 887.14 451.38 892.3 436.18 896.72 420.98 900.13 405.79 902.33 390.59 903.19 375.39 902.65 360.19 900.75 344.99 897.6 329.79 893.39 314.6 888.38 299.4 882.86 284.2 877.17 269 871.65 253.8 866.63 238.61 862.41 223.41 859.26 208.21 857.35 193.01 856.8 177.81 857.65 162.61 859.85 147.42 863.25 132.22 867.66 117.02 872.82 101.82 878.41 86.62 884.09 71.42 889.52 56.23 894.39 41.03 898.38 25.83 901.27 10.63 902.88 -4.56 903.12 -19.76 901.96 -34.95 899.48 -50.15 895.83 -65.35 891.22 -80.55 885.94 -80.85 870.89 -81.04 855.83 -81.09 840.77 -81 825.71 -80.77 810.66 -80.44 795.6 -80.05 780.54 -79.66 765.48 -79.3 750.42 -79.04 735.37 -78.91 720.31 -78.92 705.25 -79.07 690.19 -79.34 675.14 -79.7 660.08 -80.1 645.02 -80.49 629.96 -80.81 614.91 -81.02 599.85 -81.09 584.79 -81.03 569.73 -80.82 554.67 -80.51 539.62 -80.12 524.56 -79.72 509.5 -79.36 494.44 -79.08 479.39 -78.92 464.33 -78.91 449.27 -79.03 434.21 -79.29 419.16 -79.64 404.1 -80.03 389.04 -80.42 373.98 -80.76 358.92 -80.99 343.87 -81.09 328.81 -81.05 313.75 -80.86 298.69 -80.57 283.64 -80.19 268.58 -79.79 253.52 -79.42 238.46 -79.12 223.41 -78.94 208.35 -78.9 193.29 -79 178.23 -79.24 163.17 -79.57 148.12 -79.96 133.06 -80.36 118 -80.71 102.94 -80.96 87.89 -81.08 72.83 -81.07 57.77 -80.91 42.71 -80.62 27.66 -80.26 12.6 -79.86 -2.45 -79.48 -17.51 -79.17 -32.57 -78.96 -47.62 -78.9 -62.68 -78.97 -77.74" fill="url(#uuunion-grad)"></path><path d="M-78.97 -77.74Q-78.9 -62.68 -78.96 -47.62 -79.17 -32.57 -79.48 -17.51 -79.86 -2.45 -80.26 12.6 -80.62 27.66 -80.91 42.71 -81.07 57.77 -81.08 72.83 -80.96 87.89 -80.71 102.94 -80.36 118 -79.96 133.06 -79.57 148.12 -79.24 163.17 -79 178.23 -78.9 193.29 -78.94 208.35 -79.12 223.41 -79.42 238.46 -79.79 253.52 -80.19 268.58 -80.57 283.64 -80.86 298.69 -81.05 313.75 -81.09 328.81 -80.99 343.87 -80.76 358.92 -80.42 373.98 -80.03 389.04 -79.64 404.1 -69.72 406.57 -59.81 408.86 -49.89 410.91 -39.98 412.68 -30.06 414.1 -20.15 415.14 -1.56 415.94 1.64 415.99 14.21 409.21 26.88 401.79 39.65 393.8 52.51 385.3 65.45 376.41 78.46 367.23 91.51 357.89 104.58 348.52 117.65 339.24 130.69 330.2 143.68 321.48 156.58 313.21 169.37 305.45 182.03 298.25 194.54 291.66 206.89 285.68 219.06 280.29 231.05 275.45 242.86 271.08 254.49 267.12 265.96 263.45 277.28 259.96 288.48 256.54 299.59 253.08 310.64 249.44 321.67 245.54 332.71 241.27 343.82 236.55 355.02 231.34 366.36 225.59 377.88 219.29 389.62 212.45 401.6 205.1 413.86 197.3 426.41 189.11 439.27 180.63 452.44 171.95 465.92 163.16 479.7 154.39 493.75 145.74 508.05 137.29 522.56 129.15 537.24 121.38 552.05 114.05 566.92 107.18 581.79 100.81 596.61 94.92 611.32 89.49 625.86 84.49 640.15 79.85 654.17 75.49 667.84 71.35 681.13 67.32 694.01 63.32 706.45 59.24 718.44 55 729.97 50.51 741.06 45.72 751.71 40.56 761.97 35 771.87 29 781.46 22.58 790.82 15.75 800 8.53 790.89 -9.19 783.41 -26.91 778.92 -44.63 778.2 -62.36 781.39 -80.08 787.93 -97.81 796.62 -115.53 805.93 -133.25 790.92 -132.46 775.9 -132.11 760.89 -132.23 745.88 -132.81 730.87 -133.82 715.86 -135.2 700.85 -136.86 685.83 -138.7 670.82 -140.63 655.81 -142.51 640.8 -144.25 625.79 -145.73 610.77 -146.88 595.76 -147.61 580.75 -147.89 565.74 -147.7 550.73 -147.06 535.72 -145.99 520.7 -144.57 505.69 -142.88 490.68 -141.01 475.67 -139.09 460.66 -137.21 445.65 -135.51 430.63 -134.07 415.62 -132.98 400.61 -132.31 385.6 -132.1 370.59 -132.35 355.57 -133.06 340.56 -134.18 325.55 -135.65 310.54 -137.37 295.53 -139.25 280.52 -141.18 265.5 -143.03 250.49 -144.71 235.48 -146.1 220.47 -147.13 205.46 -147.74 190.45 -147.89 175.43 -147.56 160.42 -146.79 145.41 -145.62 130.4 -144.11 115.39 -142.35 100.37 -140.46 85.36 -138.54 70.35 -136.7 55.34 -135.06 40.33 -133.72 25.32 -132.74 10.3 -132.2 -4.7 -132.12 -19.71 -132.51 -34.72 -133.34 -49.73 -134.57 -64.74 -136.12 -79.76 -137.9 -94.77 -139.81 -109.78 -141.72 -124.79 -143.54 -134.01 -131.57 -116.08 -112.84 -106.65 -104.14 -97.33 -95.37 -88.11 -86.56 -78.97 -77.74" fill="url(#uuunion-grad2)" filter="url(#uuunion-blur)"></path><path d="M792.84 413.65Q802.75 412.1 812.67 410.24 822.58 408.09 832.5 405.73 842.41 403.22 852.33 400.62 863.38 404.18 858.94 425.31 856.14 440.24 856.5 455.18 859.97 470.11 866.09 485.05 874.05 499.99 882.8 514.92 891.18 529.86 898.07 544.79 902.58 559.73 904.09 574.66 902.42 589.6 897.78 604.54 890.78 619.47 882.36 634.41 873.62 649.34 865.73 664.28 859.72 679.22 856.4 694.15 856.2 709.09 859.15 724.02 864.86 738.96 872.57 753.89 881.27 768.83 889.79 783.77 897.02 798.7 902 813.64 904.06 828.57 902.94 843.51 898.78 858.45 892.13 873.38 878.18 878.53 864.24 883.74 850.29 888.77 836.34 893.35 822.39 897.26 808.45 900.29 794.5 902.29 780.55 903.16 766.6 902.86 752.66 901.39 738.71 898.84 724.76 895.34 710.81 891.06 696.86 886.21 682.92 881.05 668.97 875.84 655.02 870.84 641.07 866.3 627.13 862.46 613.18 859.5 599.23 857.59 585.28 856.81 571.34 857.21 557.39 858.76 543.44 861.39 529.49 864.96 515.55 869.3 501.6 874.17 487.65 879.35 473.7 884.55 459.76 889.53 445.81 894.02 431.86 897.8 417.91 900.68 403.97 902.5 390.02 903.19 376.07 902.7 362.12 901.06 348.18 898.35 334.23 894.71 320.28 890.33 306.33 885.42 292.38 880.23 278.44 875.03 264.49 870.09 250.54 865.65 236.59 861.93 222.65 859.13 208.7 857.39 194.75 856.8 180.8 857.38 166.86 859.1 152.91 861.89 138.96 865.6 125.01 870.03 111.07 874.97 97.12 880.17 83.17 885.36 69.22 890.27 55.28 894.66 41.33 898.31 27.38 901.03 6.55 897.87 -0.17 882.89 -0.07 872.74 -0.02 862.59 -0.04 852.44 -0.11 842.29 -0.06 827.07 0.61 822 13.14 815.19 25.57 807.5 37.9 798.99 50.12 789.75 62.23 779.93 74.25 769.67 86.2 759.15 98.08 748.54 109.92 738.03 121.75 727.8 133.58 718.01 145.46 708.8 157.4 700.29 169.43 692.57 181.58 685.7 193.88 679.69 206.33 674.52 218.97 670.15 231.79 666.48 244.81 663.4 258.02 660.78 271.42 658.45 284.98 656.26 298.71 654.03 312.56 651.59 326.51 648.79 340.52 645.48 354.55 641.56 368.57 636.92 382.54 631.51 396.39 625.29 410.1 618.29 423.63 610.52 436.93 602.08 449.97 593.04 462.73 583.54 475.18 573.72 487.31 563.73 499.11 553.72 510.59 543.86 521.76 534.29 532.64 525.15 543.25 516.55 553.64 508.59 563.85 501.33 573.93 494.81 583.93 489.02 593.92 483.95 603.95 479.54 614.1 475.7 624.43 472.32 634.98 469.29 645.84 466.45 657.03 463.68 668.62 460.82 680.62 457.73 693.08 454.28 706.01 450.36 719.41 445.88 733.28 440.77 747.59 434.99 762.31 428.53 785.13 417.52 792.84 413.65" fill="url(#uuunion-grad3)" filter="url(#uuunion-blur2)"></path></svg>